<svg xmlns="http://www.w3.org/2000/svg" viewBox="0 0 256 256" width="256" height="256"><rect x="0" y="0" width="256" height="256" rx="46" ry="46" fill="#182235"/><g transform="translate(64 64) scale(5.333333333333333)" fill="none" stroke="#818CF8" stroke-width="1.8" stroke-linecap="round" stroke-linejoin="round"><path d="m12 3-1.912 5.813a2 2 0 0 1-1.275 1.275L3 12l5.813 1.912a2 2 0 0 1 1.275 1.275L12 21l1.912-5.813a2 2 0 0 1 1.275-1.275L21 12l-5.813-1.912a2 2 0 0 1-1.275-1.275L12 3Z"/><path d="M5 3v4"/><path d="M19 17v4"/><path d="M3 5h4"/><path d="M17 19h4"/></g></svg>